<svg width="372" height="372" viewBox="0 0 372 372" fill="none" xmlns="http://www.w3.org/2000/svg">
<path d="M372 372L286 372C230.772 372 186 327.229 186 272L186 186L272 186C327.228 186 372 230.772 372 286L372 372Z" fill="#FEC247"/>
<path d="M0 372L86 372C141.228 372 186 327.229 186 272L186 186L100 186C44.7715 186 1.23466e-05 230.772 7.51836e-06 286L0 372Z" fill="#6B5ACC"/>
<path d="M186 186L100 186C44.7715 186 3.91405e-06 141.229 8.74228e-06 86.0002L1.62606e-05 0.000166845L86 0.000174363C141.228 0.000179191 186 44.7717 186 100L186 186Z" fill="#21C1F3"/>
<path d="M186 186L272 186C327.228 186 372 141.229 372 86.0002L372 0.000199366L286 0.000191848C230.772 0.00018702 186 44.7717 186 100L186 186Z" fill="#EE4F3C"/>
</svg>
