<svg width="325" height="325" viewBox="0 0 325 325" fill="none" xmlns="http://www.w3.org/2000/svg">
<path d="M0 0H62.5C117.728 0 162.5 44.7715 162.5 100V162.5H100C44.7715 162.5 0 117.728 0 62.5V0Z" fill="#FEC247"/>
<path d="M325 0H262.5C207.272 0 162.5 44.7715 162.5 100V162.5H225C280.228 162.5 325 117.728 325 62.5V0Z" fill="#6B5ACC"/>
<path d="M162.5 162.5H225C280.228 162.5 325 207.272 325 262.5V325H262.5C207.272 325 162.5 280.228 162.5 225V162.5Z" fill="#21C1F3"/>
<path d="M162.5 162.5H100C44.7715 162.5 0 207.272 0 262.5V325H62.5C117.728 325 162.5 280.228 162.5 225V162.5Z" fill="#EE4F3C"/>
</svg>
