<svg width="325" height="325" viewBox="0 0 325 325" fill="none" xmlns="http://www.w3.org/2000/svg">
<path d="M325 0L325 62.5C325 117.728 280.228 162.5 225 162.5L162.5 162.5L162.5 100C162.5 44.7715 207.272 -5.14607e-06 262.5 -2.73196e-06L325 0Z" fill="#FEC247"/>
<path d="M325 325L325 262.5C325 207.272 280.228 162.5 225 162.5L162.5 162.5L162.5 225C162.5 280.228 207.272 325 262.5 325L325 325Z" fill="#6B5ACC"/>
<path d="M162.5 162.5L162.5 225C162.5 280.228 117.728 325 62.5 325L-7.1031e-06 325L-4.37114e-06 262.5C-1.95703e-06 207.272 44.7715 162.5 100 162.5L162.5 162.5Z" fill="#21C1F3"/>
<path d="M162.5 162.5L162.5 100C162.5 44.7715 117.728 -1.95703e-06 62.5 -4.37114e-06L7.1031e-06 -7.1031e-06L4.37114e-06 62.5C1.95703e-06 117.728 44.7715 162.5 100 162.5L162.5 162.5Z" fill="#EE4F3C"/>
</svg>
