<svg width="100" height="100" viewBox="0 0 100 100" fill="none" xmlns="http://www.w3.org/2000/svg">
<circle cx="50" cy="50" r="50" fill="#FFF8F8"/>
<path fill-rule="evenodd" clip-rule="evenodd" d="M52.4224 41.1723C52.5966 40.9977 52.8035 40.8592 53.0313 40.7646C53.2591 40.6701 53.5033 40.6215 53.7499 40.6215C53.9966 40.6215 54.2408 40.6701 54.4686 40.7646C54.6964 40.8592 54.9033 40.9977 55.0774 41.1723L62.5774 48.6723C62.752 48.8465 62.8906 49.0534 62.9851 49.2812C63.0796 49.509 63.1283 49.7532 63.1283 49.9998C63.1283 50.2464 63.0796 50.4906 62.9851 50.7184C62.8906 50.9462 62.752 51.1531 62.5774 51.3273L55.0774 58.8273C54.7254 59.1794 54.2478 59.3772 53.7499 59.3772C53.252 59.3772 52.7745 59.1794 52.4224 58.8273C52.0704 58.4752 51.8726 57.9977 51.8726 57.4998C51.8726 57.0019 52.0704 56.5244 52.4224 56.1723L58.5987 49.9998L52.4224 43.8273C52.2478 43.6531 52.1093 43.4462 52.0148 43.2184C51.9202 42.9906 51.8716 42.7464 51.8716 42.4998C51.8716 42.2532 51.9202 42.009 52.0148 41.7812C52.1093 41.5534 52.2478 41.3465 52.4224 41.1723ZM47.5774 41.1723C47.4033 40.9977 47.1964 40.8592 46.9686 40.7646C46.7408 40.6701 46.4966 40.6215 46.2499 40.6215C46.0033 40.6215 45.7591 40.6701 45.5313 40.7646C45.3035 40.8592 45.0966 40.9977 44.9224 41.1723L37.4224 48.6723C37.2478 48.8465 37.1093 49.0534 37.0148 49.2812C36.9202 49.509 36.8716 49.7532 36.8716 49.9998C36.8716 50.2464 36.9202 50.4906 37.0148 50.7184C37.1093 50.9462 37.2478 51.1531 37.4224 51.3273L44.9224 58.8273C45.2745 59.1794 45.752 59.3772 46.2499 59.3772C46.7478 59.3772 47.2254 59.1794 47.5774 58.8273C47.9295 58.4752 48.1273 57.9977 48.1273 57.4998C48.1273 57.0019 47.9295 56.5244 47.5774 56.1723L41.4012 49.9998L47.5774 43.8273C47.752 43.6531 47.8906 43.4462 47.9851 43.2184C48.0796 42.9906 48.1283 42.7464 48.1283 42.4998C48.1283 42.2532 48.0796 42.009 47.9851 41.7812C47.8906 41.5534 47.752 41.3465 47.5774 41.1723Z" fill="#EE4F3C"/>
<path d="M31.25 20H68.75C70.7391 20 72.6468 20.7902 74.0533 22.1967C75.4598 23.6032 76.25 25.5109 76.25 27.5V72.5C76.25 74.4891 75.4598 76.3968 74.0533 77.8033C72.6468 79.2098 70.7391 80 68.75 80H31.25C29.2609 80 27.3532 79.2098 25.9467 77.8033C24.5402 76.3968 23.75 74.4891 23.75 72.5V68.75H27.5V72.5C27.5 73.4946 27.8951 74.4484 28.5983 75.1516C29.3016 75.8549 30.2554 76.25 31.25 76.25H68.75C69.7446 76.25 70.6984 75.8549 71.4016 75.1516C72.1049 74.4484 72.5 73.4946 72.5 72.5V27.5C72.5 26.5054 72.1049 25.5516 71.4016 24.8483C70.6984 24.1451 69.7446 23.75 68.75 23.75H31.25C30.2554 23.75 29.3016 24.1451 28.5983 24.8483C27.8951 25.5516 27.5 26.5054 27.5 27.5V31.25H23.75V27.5C23.75 25.5109 24.5402 23.6032 25.9467 22.1967C27.3532 20.7902 29.2609 20 31.25 20V20Z" fill="#EE4F3C"/>
<path d="M23.75 38.75V36.875C23.75 36.3777 23.9475 35.9008 24.2992 35.5492C24.6508 35.1975 25.1277 35 25.625 35C26.1223 35 26.5992 35.1975 26.9508 35.5492C27.3025 35.9008 27.5 36.3777 27.5 36.875V38.75H29.375C29.8723 38.75 30.3492 38.9475 30.7008 39.2992C31.0525 39.6508 31.25 40.1277 31.25 40.625C31.25 41.1223 31.0525 41.5992 30.7008 41.9508C30.3492 42.3025 29.8723 42.5 29.375 42.5H21.875C21.3777 42.5 20.9008 42.3025 20.5492 41.9508C20.1975 41.5992 20 41.1223 20 40.625C20 40.1277 20.1975 39.6508 20.5492 39.2992C20.9008 38.9475 21.3777 38.75 21.875 38.75H23.75ZM23.75 50V48.125C23.75 47.6277 23.9475 47.1508 24.2992 46.7992C24.6508 46.4475 25.1277 46.25 25.625 46.25C26.1223 46.25 26.5992 46.4475 26.9508 46.7992C27.3025 47.1508 27.5 47.6277 27.5 48.125V50H29.375C29.8723 50 30.3492 50.1975 30.7008 50.5492C31.0525 50.9008 31.25 51.3777 31.25 51.875C31.25 52.3723 31.0525 52.8492 30.7008 53.2008C30.3492 53.5525 29.8723 53.75 29.375 53.75H21.875C21.3777 53.75 20.9008 53.5525 20.5492 53.2008C20.1975 52.8492 20 52.3723 20 51.875C20 51.3777 20.1975 50.9008 20.5492 50.5492C20.9008 50.1975 21.3777 50 21.875 50H23.75ZM23.75 61.25V59.375C23.75 58.8777 23.9475 58.4008 24.2992 58.0492C24.6508 57.6975 25.1277 57.5 25.625 57.5C26.1223 57.5 26.5992 57.6975 26.9508 58.0492C27.3025 58.4008 27.5 58.8777 27.5 59.375V61.25H29.375C29.8723 61.25 30.3492 61.4475 30.7008 61.7992C31.0525 62.1508 31.25 62.6277 31.25 63.125C31.25 63.6223 31.0525 64.0992 30.7008 64.4508C30.3492 64.8025 29.8723 65 29.375 65H21.875C21.3777 65 20.9008 64.8025 20.5492 64.4508C20.1975 64.0992 20 63.6223 20 63.125C20 62.6277 20.1975 62.1508 20.5492 61.7992C20.9008 61.4475 21.3777 61.25 21.875 61.25H23.75Z" fill="#EE4F3C"/>
</svg>
