<svg width="100" height="100" viewBox="0 0 100 100" fill="none" xmlns="http://www.w3.org/2000/svg">
<circle cx="50" cy="50" r="50" fill="#FFF8F8"/>
<path d="M50 72.5L55 67.5M61.25 67.5C62.9076 67.5 64.4973 66.8415 65.6694 65.6694C66.8415 64.4973 67.5 62.9076 67.5 61.25C67.5 59.5924 66.8415 58.0027 65.6694 56.8306C64.4973 55.6585 62.9076 55 61.25 55C59.5924 55 58.0027 55.6585 56.8306 56.8306C55.6585 58.0027 55 59.5924 55 61.25C55 62.9076 55.6585 64.4973 56.8306 65.6694C58.0027 66.8415 59.5924 67.5 61.25 67.5V67.5ZM45 32.5L50 27.5L45 32.5ZM38.75 45C40.4076 45 41.9973 44.3415 43.1694 43.1694C44.3415 41.9973 45 40.4076 45 38.75C45 37.0924 44.3415 35.5027 43.1694 34.3306C41.9973 33.1585 40.4076 32.5 38.75 32.5C37.0924 32.5 35.5027 33.1585 34.3306 34.3306C33.1585 35.5027 32.5 37.0924 32.5 38.75C32.5 40.4076 33.1585 41.9973 34.3306 43.1694C35.5027 44.3415 37.0924 45 38.75 45V45ZM40 60L60 40L40 60ZM33.75 72.5C35.4076 72.5 36.9973 71.8415 38.1694 70.6694C39.3415 69.4973 40 67.9076 40 66.25C40 64.5924 39.3415 63.0027 38.1694 61.8306C36.9973 60.6585 35.4076 60 33.75 60C32.0924 60 30.5027 60.6585 29.3306 61.8306C28.1585 63.0027 27.5 64.5924 27.5 66.25C27.5 67.9076 28.1585 69.4973 29.3306 70.6694C30.5027 71.8415 32.0924 72.5 33.75 72.5V72.5ZM66.25 40C67.9076 40 69.4973 39.3415 70.6694 38.1694C71.8415 36.9973 72.5 35.4076 72.5 33.75C72.5 32.0924 71.8415 30.5027 70.6694 29.3306C69.4973 28.1585 67.9076 27.5 66.25 27.5C64.5924 27.5 63.0027 28.1585 61.8306 29.3306C60.6585 30.5027 60 32.0924 60 33.75C60 35.4076 60.6585 36.9973 61.8306 38.1694C63.0027 39.3415 64.5924 40 66.25 40Z" stroke="#EE4F3C" stroke-width="4" stroke-linecap="round" stroke-linejoin="round"/>
</svg>
