<svg width="100" height="100" viewBox="0 0 100 100" fill="none" xmlns="http://www.w3.org/2000/svg">
<circle cx="50" cy="50" r="50" fill="#FFF8F8"/>
<path d="M47 31.9995C44.711 31.9995 42.575 32.6385 40.754 33.7515C40.5658 32.7447 40.2227 31.7732 39.737 30.8715C42.0209 29.6076 44.5951 28.9616 47.2051 28.9973C49.8152 29.0329 52.3707 29.7491 54.6192 31.075C56.8676 32.4009 58.7312 34.2905 60.0257 36.5572C61.3201 38.8239 62.0007 41.3892 62 43.9995H69.503C70.696 44.0003 71.8398 44.4747 72.6831 45.3186C73.5263 46.1624 74 47.3065 74 48.4995V66.4995C74 67.693 73.5259 68.8376 72.682 69.6815C71.8381 70.5254 70.6935 70.9995 69.5 70.9995H51.5C50.3066 70.9995 49.162 70.5254 48.318 69.6815C47.4741 68.8376 47 67.693 47 66.4995V58.9995C44.9132 59.0021 42.8489 58.5678 40.94 57.7245C40.979 56.7045 41 55.6335 41 54.4995V54.3945C42.764 55.4145 44.813 55.9995 47 55.9995V48.4995C47 47.306 47.4741 46.1614 48.318 45.3175C49.162 44.4736 50.3066 43.9995 51.5 43.9995H59C59 40.8169 57.7357 37.7646 55.4853 35.5142C53.2349 33.2638 50.1826 31.9995 47 31.9995ZM61.7 46.9995C61.1099 49.8812 59.6866 52.5262 57.6066 54.6061C55.5267 56.6861 52.8817 58.1094 50 58.6995V66.4995C50 66.8973 50.1581 67.2788 50.4394 67.5602C50.7207 67.8415 51.1022 67.9995 51.5 67.9995H69.5C69.8978 67.9995 70.2794 67.8415 70.5607 67.5602C70.842 67.2788 71 66.8973 71 66.4995V48.4995C71 48.1017 70.842 47.7201 70.5607 47.4388C70.2794 47.1575 69.8978 46.9995 69.5 46.9995H61.7ZM58.622 46.9995H51.5C51.1022 46.9995 50.7207 47.1575 50.4394 47.4388C50.1581 47.7201 50 48.1017 50 48.4995V55.6215C52.0755 55.0838 53.9693 54.0008 55.4853 52.4848C57.0014 50.9688 58.0843 49.0749 58.622 46.9995Z" fill="#EE4F3C"/>
<path d="M33.74 26.3749C33.9895 26.5923 34.1601 26.8861 34.2252 27.2106C34.2903 27.5351 34.2463 27.872 34.1 28.1689C34.0746 28.2566 34.0615 28.3475 34.061 28.4389C34.061 28.6279 34.109 28.9879 34.562 29.4379C34.781 29.6569 34.949 29.8129 35.132 29.9839C35.282 30.1219 35.441 30.2659 35.642 30.4639C36.032 30.8359 36.443 31.2739 36.812 31.8229C37.577 32.9719 38 34.4089 38 36.4999C38 39.0589 37.052 41.2399 35.573 42.5779L35.765 42.7999C36.605 43.8319 37.094 45.1699 37.4 46.4899C38 49.0999 38 52.2379 38 54.4249V54.4999C38 62.8609 36.863 67.6039 35.612 70.3159C34.982 71.6809 34.313 72.5509 33.734 73.0969C33.4986 73.3227 33.239 73.5219 32.96 73.6909C32.8322 73.7678 32.6989 73.835 32.561 73.8919C32.561 73.8919 32.222 73.9999 32 73.9999C31.778 73.9999 31.439 73.8919 31.439 73.8919C31.2996 73.8383 31.166 73.771 31.04 73.6909C30.761 73.5219 30.5014 73.3227 30.266 73.0969C29.687 72.5479 29.018 71.6809 28.388 70.3159C27.137 67.6039 26 62.8609 26 54.4999V54.4249C26 52.2349 26 49.0999 26.6 46.4899C26.906 45.1699 27.395 43.8319 28.235 42.7999C28.295 42.7249 28.361 42.6499 28.427 42.5779C26.948 41.2399 26 39.0589 26 36.4999C26 35.5219 26.261 34.3549 26.621 33.2779C26.981 32.1979 27.485 31.0819 28.067 30.1819C28.76 29.0119 29.735 28.0309 30.491 27.3709C30.9055 27.0064 31.338 26.6629 31.787 26.3419L31.877 26.2819L31.904 26.2609L31.913 26.2549L31.919 26.2519C32.1941 26.0685 32.5221 25.9812 32.8519 26.0034C33.1818 26.0256 33.495 26.1562 33.743 26.3749H33.74ZM32.009 40.9999C33.158 40.9969 35 39.7099 35 36.4999C35 34.8409 34.673 34.0279 34.313 33.4879C34.0941 33.1725 33.8416 32.8818 33.56 32.6209L33.188 32.2729C32.945 32.0449 32.66 31.7809 32.438 31.5619C32.1099 31.2372 31.8282 30.8687 31.601 30.4669C31.2191 30.8684 30.8831 31.3111 30.599 31.7869C30.179 32.4319 29.771 33.3169 29.468 34.2289C29.156 35.1589 29 35.9809 29 36.4999C29 39.7159 30.845 40.9999 32 40.9999H32.006H32.009ZM30.56 44.6959C30.137 45.2149 29.78 46.0429 29.525 47.1649C29.006 49.4089 29 52.2289 29 54.4999C29 62.6389 30.113 66.8959 31.112 69.0589C31.442 69.7699 31.751 70.2439 32 70.5589C32.249 70.2439 32.561 69.7699 32.888 69.0589C33.887 66.8959 35 62.6389 35 54.4999C35 52.2289 34.994 49.4089 34.475 47.1649C34.217 46.0429 33.863 45.2149 33.44 44.6959C33.2745 44.4717 33.0569 44.2911 32.806 44.1699C32.5552 44.0486 32.2785 43.9903 32 43.9999H31.994C31.7165 43.991 31.4409 44.0497 31.1911 44.1709C30.9413 44.2922 30.7247 44.4723 30.56 44.6959Z" fill="#EE4F3C"/>
</svg>
