<svg width="100" height="100" viewBox="0 0 100 100" fill="none" xmlns="http://www.w3.org/2000/svg">
<circle cx="50" cy="50" r="50" fill="#FFF8F8"/>
<path d="M75.25 66.8761L75.25 75.25H73.5L73.5 66.875L73.5 66.8738C73.4967 64.1235 72.4027 61.4868 70.4579 59.5421C68.7501 57.8342 66.5085 56.7824 64.125 56.5493V54.7925C66.9731 55.0313 69.6582 56.2696 71.6943 58.3057C73.9674 60.5788 75.2461 63.6607 75.25 66.8753C75.25 66.8756 75.25 66.8759 75.25 66.8761Z" fill="#EE4F3C" stroke="#EE4F3C" stroke-width="2"/>
<path d="M60.25 66.8761V75.25H58.5V66.875V66.8738C58.4967 64.1235 57.4027 61.4868 55.4579 59.5421C53.5132 57.5973 50.8765 56.5033 48.1262 56.5H48.125L36.875 56.5L36.8738 56.5C34.1235 56.5033 31.4868 57.5973 29.5421 59.5421C27.5973 61.4868 26.5033 64.1235 26.5 66.8738V66.875V75.25H24.75V66.8756C24.7538 63.6609 26.0326 60.5789 28.3057 58.3057C30.5789 56.0326 33.6609 54.7538 36.8756 54.75H48.1244C51.3391 54.7538 54.4211 56.0326 56.6943 58.3057C58.9676 60.579 60.2463 63.6612 60.25 66.8761Z" fill="#EE4F3C" stroke="#EE4F3C" stroke-width="2"/>
<path d="M58.5 26.5483V24.7913C61.3496 25.027 64.0367 26.2643 66.0737 28.3013C68.3475 30.5752 69.625 33.6593 69.625 36.875C69.625 40.0907 68.3475 43.1748 66.0737 45.4487C64.0367 47.4857 61.3496 48.723 58.5 48.9587V47.2017C60.8846 46.9709 63.1277 45.9198 64.8362 44.2112C66.7819 42.2655 67.875 39.6266 67.875 36.875C67.875 34.1234 66.7819 31.4845 64.8362 29.5388C63.1277 27.8302 60.8846 26.7791 58.5 26.5483Z" fill="#EE4F3C" stroke="#EE4F3C" stroke-width="2"/>
<path d="M48.264 28.2485C46.5579 27.1085 44.552 26.5 42.5 26.5C39.7484 26.5 37.1095 27.5931 35.1638 29.5388C33.2181 31.4845 32.125 34.1234 32.125 36.875C32.125 38.927 32.7335 40.9329 33.8735 42.639C35.0135 44.3452 36.6339 45.675 38.5297 46.4603C40.4255 47.2455 42.5115 47.451 44.5241 47.0506C46.5366 46.6503 48.3853 45.6622 49.8362 44.2112C51.2872 42.7603 52.2753 40.9116 52.6757 38.8991C53.076 36.8865 52.8705 34.8004 52.0853 32.9047C51.3 31.0089 49.9702 29.3885 48.264 28.2485ZM35.7637 26.7934C37.7577 25.4611 40.1019 24.75 42.5 24.75C45.7158 24.75 48.7998 26.0275 51.0737 28.3013C53.3476 30.5752 54.625 33.6593 54.625 36.875C54.625 39.2731 53.9139 41.6173 52.5816 43.6113C51.2493 45.6052 49.3556 47.1593 47.14 48.077C44.9245 48.9948 42.4866 49.2349 40.1345 48.767C37.7825 48.2992 35.622 47.1444 33.9263 45.4487C32.2306 43.753 31.0758 41.5925 30.608 39.2405C30.1401 36.8885 30.3803 34.4505 31.298 32.235C32.2157 30.0194 33.7698 28.1257 35.7637 26.7934Z" fill="#EE4F3C" stroke="#EE4F3C" stroke-width="2"/>
</svg>
