<svg width="100" height="100" viewBox="0 0 100 100" fill="none" xmlns="http://www.w3.org/2000/svg">
<circle cx="50" cy="50" r="50" fill="#FFF8F8"/>
<g clip-path="url(#clip0_14021_4)">
<path d="M44.375 23.75C42.8832 23.75 41.4524 24.3426 40.3975 25.3975C39.3426 26.4524 38.75 27.8832 38.75 29.375V31.25H25.625C24.1332 31.25 22.7024 31.8426 21.6475 32.8975C20.5926 33.9524 20 35.3832 20 36.875V66.875C20 68.3668 20.5926 69.7976 21.6475 70.8525C22.7024 71.9074 24.1332 72.5 25.625 72.5H74.375C75.8668 72.5 77.2976 71.9074 78.3525 70.8525C79.4074 69.7976 80 68.3668 80 66.875V36.875C80 35.3832 79.4074 33.9524 78.3525 32.8975C77.2976 31.8426 75.8668 31.25 74.375 31.25H61.25V29.375C61.25 27.8832 60.6574 26.4524 59.6025 25.3975C58.5476 24.3426 57.1168 23.75 55.625 23.75H44.375ZM44.375 27.5H55.625C56.1223 27.5 56.5992 27.6975 56.9508 28.0492C57.3025 28.4008 57.5 28.8777 57.5 29.375V31.25H42.5V29.375C42.5 28.8777 42.6975 28.4008 43.0492 28.0492C43.4008 27.6975 43.8777 27.5 44.375 27.5ZM51.4475 53.4275L76.25 46.8162V66.875C76.25 67.3723 76.0525 67.8492 75.7008 68.2008C75.3492 68.5525 74.8723 68.75 74.375 68.75H25.625C25.1277 68.75 24.6508 68.5525 24.2992 68.2008C23.9475 67.8492 23.75 67.3723 23.75 66.875V46.8125L48.5525 53.4275C49.501 53.6801 50.499 53.6801 51.4475 53.4275ZM25.625 35H74.375C74.8723 35 75.3492 35.1975 75.7008 35.5492C76.0525 35.9008 76.25 36.3777 76.25 36.875V42.935L50.4837 49.805C50.1668 49.8896 49.8332 49.8896 49.5162 49.805L23.75 42.935V36.875C23.75 36.3777 23.9475 35.9008 24.2992 35.5492C24.6508 35.1975 25.1277 35 25.625 35Z" fill="#EE4F3C"/>
</g>
<defs>
<clipPath id="clip0_14021_4">
<rect width="60" height="60" fill="white" transform="translate(20 20)"/>
</clipPath>
</defs>
</svg>
