<svg width="124" height="30" viewBox="0 0 124 30" fill="none" xmlns="http://www.w3.org/2000/svg">
<g clip-path="url(#clip0_14229_2)">
<g opacity="0.3">
<path d="M12.8145 2.94141V3.55664C11.7129 3.84961 10.998 4.17773 10.6699 4.54102C10.3535 4.89258 10.1953 5.68945 10.1953 6.93164V25.582C10.1953 27.6445 9.67383 29.25 8.63086 30.3984C7.58789 31.5586 6.11719 32.1387 4.21875 32.1387C2.74219 32.1387 1.49414 31.7344 0.474609 30.9258C-0.544922 30.1172 -1.13672 29.0566 -1.30078 27.7441H-0.685547C0.0175781 29.0918 1.06055 29.7656 2.44336 29.7656C3.55664 29.7656 4.34766 29.3848 4.81641 28.623C5.29688 27.873 5.53711 26.584 5.53711 24.7559V6.58008C5.53711 5.57227 5.36133 4.875 5.00977 4.48828C4.66992 4.10156 3.94922 3.79102 2.84766 3.55664V2.94141H12.8145ZM55.4752 24H42.7837V23.3848C43.8853 23.1621 44.6002 22.8457 44.9283 22.4355C45.2681 22.0137 45.438 21.3457 45.438 20.4316V6.43945C45.438 5.47852 45.2505 4.79883 44.8755 4.40039C44.5123 3.99023 43.815 3.70898 42.7837 3.55664V2.94141H53.8931C56.1666 2.94141 57.942 3.375 59.2193 4.24219C60.4966 5.09766 61.1353 6.31055 61.1353 7.88086C61.1353 10.3184 59.5767 11.9707 56.4595 12.8379V12.9082C60.4439 13.6348 62.4361 15.4863 62.4361 18.4629C62.4361 20.1152 61.8033 21.4512 60.5377 22.4707C59.272 23.4902 57.5845 24 55.4752 24ZM50.0787 4.13672V12.5918H51.7837C53.1314 12.5918 54.1861 12.2168 54.9478 11.4668C55.7095 10.7168 56.0904 9.67383 56.0904 8.33789C56.0904 5.53711 54.5435 4.13672 51.4498 4.13672H50.0787ZM52.5748 13.7695H50.0787V20.2207C50.0787 21.1582 50.313 21.8262 50.7818 22.2246C51.2505 22.6113 52.0357 22.8047 53.1373 22.8047C54.4615 22.8047 55.4986 22.4121 56.2486 21.627C57.0103 20.8301 57.3912 19.7344 57.3912 18.3398C57.3912 16.957 56.9634 15.8496 56.108 15.0176C55.2642 14.1855 54.0865 13.7695 52.5748 13.7695ZM65.5643 2.94141H76.3748C78.6014 2.94141 80.3534 3.45703 81.6307 4.48828C82.9198 5.51953 83.5643 6.86133 83.5643 8.51367C83.5643 10.2949 82.8495 11.7539 81.4198 12.8906C80.0018 14.0273 78.0448 14.5957 75.5487 14.5957C74.6815 14.5957 73.7909 14.5371 72.8768 14.4199V20.4316C72.8768 21.3809 73.0643 22.0664 73.4393 22.4883C73.826 22.9102 74.5174 23.209 75.5135 23.3848V24H65.5643V23.3848C66.6307 23.1738 67.3397 22.8574 67.6913 22.4355C68.0545 22.002 68.2362 21.252 68.2362 20.1855V6.43945C68.2362 5.47852 68.0663 4.81641 67.7264 4.45312C67.3866 4.08984 66.6659 3.79102 65.5643 3.55664V2.94141ZM74.6522 4.13672H72.8768V13.1719C73.4159 13.3359 73.9315 13.418 74.4237 13.418C75.7127 13.418 76.7206 13.0078 77.4471 12.1875C78.1737 11.3555 78.537 10.1953 78.537 8.70703C78.537 7.34766 78.1795 6.24609 77.4647 5.40234C76.7498 4.55859 75.8123 4.13672 74.6522 4.13672ZM95.921 2.94141V3.55664C94.796 3.83789 94.0695 4.16016 93.7413 4.52344C93.4132 4.88672 93.2491 5.49609 93.2491 6.35156V20.5371C93.2491 21.416 93.4777 22.0137 93.9347 22.3301C94.4034 22.6465 95.2823 22.8047 96.5714 22.8047C97.9191 22.8047 98.962 22.5117 99.7003 21.9258C100.45 21.3281 101.23 20.1973 102.038 18.5332H102.653L102.038 24H85.9542V23.3848C87.0792 23.1035 87.7999 22.7695 88.1163 22.3828C88.4445 21.9961 88.6085 21.1934 88.6085 19.9746V6.50977C88.6085 5.56055 88.4327 4.89844 88.0812 4.52344C87.7413 4.13672 87.0323 3.81445 85.9542 3.55664V2.94141H95.921ZM119.809 5.82422L114.834 12.9082V20.4316C114.834 21.3691 115.022 22.0488 115.397 22.4707C115.772 22.8926 116.475 23.1973 117.506 23.3848V24H107.522V23.3848C108.495 23.2441 109.18 22.9453 109.579 22.4883C109.989 22.0195 110.194 21.2871 110.194 20.291V14.1387L104.727 5.75391C104.188 4.94531 103.713 4.39453 103.303 4.10156C102.905 3.80859 102.383 3.62695 101.739 3.55664V2.94141H111.336V3.55664C110.317 3.60352 109.807 3.94336 109.807 4.57617C109.807 4.97461 110.006 5.48438 110.405 6.10547L114.043 11.7305L117.243 7.10742C117.746 6.38086 117.998 5.73633 117.998 5.17383C117.998 4.35352 117.459 3.81445 116.381 3.55664V2.94141H122.903V3.55664C121.813 3.66211 120.782 4.41797 119.809 5.82422Z" fill="#353540"/>
<path d="M39.4095 13.4883C39.4095 16.7109 38.3313 19.3594 36.1751 21.4336C34.0188 23.5078 31.2649 24.5449 27.9134 24.5449C24.5735 24.5449 21.8313 23.5078 19.6868 21.4336C17.5423 19.3594 16.47 16.7109 16.47 13.4883C16.47 10.2656 17.5423 7.61133 19.6868 5.52539C21.843 3.43945 24.5852 2.39648 27.9134 2.39648C31.2649 2.39648 34.0188 3.43945 36.1751 5.52539C38.3313 7.61133 39.4095 10.2656 39.4095 13.4883ZM34.3645 13.6289C34.3645 10.3594 33.8138 7.86914 32.7122 6.1582C31.6223 4.44727 30.0227 3.5918 27.9134 3.5918C25.8274 3.5918 24.2395 4.44727 23.1497 6.1582C22.0598 7.86914 21.5149 10.3711 21.5149 13.6641C21.5149 16.7227 22.0657 19.1016 23.1673 20.8008C24.2688 22.5 25.8509 23.3496 27.9134 23.3496C29.9407 23.3496 31.5227 22.5059 32.6595 20.8184C33.7962 19.1309 34.3645 16.7344 34.3645 13.6289Z" fill="#EE4F3C"/>
</g>
</g>
<defs>
<clipPath id="clip0_14229_2">
<rect width="124" height="30" fill="white"/>
</clipPath>
</defs>
</svg>
