<svg width="55" height="55" viewBox="0 0 55 55" fill="none" xmlns="http://www.w3.org/2000/svg">
<circle cx="27.5" cy="27.5" r="27.5" fill="white"/>
<path d="M40.2569 25.5519H39.25V25.5H28V30.5H35.0644C34.0338 33.4106 31.2644 35.5 28 35.5C23.8581 35.5 20.5 32.1419 20.5 28C20.5 23.8581 23.8581 20.5 28 20.5C29.9119 20.5 31.6513 21.2212 32.9756 22.3994L36.5112 18.8637C34.2787 16.7831 31.2925 15.5 28 15.5C21.0969 15.5 15.5 21.0969 15.5 28C15.5 34.9031 21.0969 40.5 28 40.5C34.9031 40.5 40.5 34.9031 40.5 28C40.5 27.1619 40.4137 26.3438 40.2569 25.5519Z" fill="#FFC107"/>
<path d="M16.9413 22.1819L21.0481 25.1938C22.1594 22.4425 24.8506 20.5 28 20.5C29.9119 20.5 31.6513 21.2212 32.9756 22.3994L36.5113 18.8637C34.2788 16.7831 31.2925 15.5 28 15.5C23.1988 15.5 19.035 18.2106 16.9413 22.1819Z" fill="#FF3D00"/>
<path d="M28 40.5001C31.2287 40.5001 34.1625 39.2644 36.3806 37.2551L32.5119 33.9813C31.2147 34.9678 29.6297 35.5014 28 35.5001C24.7487 35.5001 21.9881 33.4269 20.9481 30.5338L16.8719 33.6744C18.9406 37.7226 23.1419 40.5001 28 40.5001Z" fill="#4CAF50"/>
<path d="M40.2569 25.5519H39.25V25.5H28V30.5H35.0644C34.5714 31.8853 33.6833 33.0957 32.51 33.9819L32.5119 33.9806L36.3806 37.2544C36.1069 37.5031 40.5 34.25 40.5 28C40.5 27.1619 40.4137 26.3438 40.2569 25.5519Z" fill="#1976D2"/>
</svg>
