<svg width="1111" height="744" viewBox="0 0 1111 744" fill="none" xmlns="http://www.w3.org/2000/svg">
<g opacity="0.05">
<path d="M371.579 372L285.579 372C230.35 372 185.579 327.229 185.579 272L185.579 186L271.579 186C326.807 186 371.579 230.772 371.579 286L371.579 372Z" fill="#FEC247"/>
<path d="M185.579 186L271.579 186C326.807 186 371.579 141.228 371.579 86L371.579 -1.42569e-05L285.579 -2.17753e-05C230.35 -2.66035e-05 185.579 44.7715 185.579 100L185.579 186Z" fill="#EE4F3C"/>
<path d="M-0.42157 372L85.5784 372C140.807 372 185.578 327.229 185.578 272L185.578 186L99.5784 186C44.35 186 -0.421557 230.772 -0.421562 286L-0.42157 372Z" fill="#6B5ACC"/>
<path d="M185.579 186L99.5786 186C44.3501 186 -0.421444 141.228 -0.421439 85.9999L-0.421431 -7.72958e-05L85.5786 -6.97774e-05C140.807 -6.49492e-05 185.579 44.7715 185.579 99.9999L185.579 186Z" fill="#21C1F3"/>
<path d="M371.578 744L285.578 744C230.35 744 185.578 699.229 185.578 644L185.579 558L271.579 558C326.807 558 371.579 602.772 371.578 658L371.578 744Z" fill="#FEC247"/>
<path d="M185.578 558L271.578 558C326.807 558 371.578 513.229 371.578 458L371.579 372L285.579 372C230.35 372 185.579 416.772 185.578 472L185.578 558Z" fill="#EE4F3C"/>
<path d="M-0.421509 744L85.5785 744C140.807 744 185.578 699.229 185.578 644L185.579 558L99.5785 558C44.35 558 -0.421496 602.772 -0.421501 658L-0.421509 744Z" fill="#6B5ACC"/>
<path d="M185.578 558L99.5785 558C44.35 558 -0.421505 513.229 -0.4215 458L-0.421493 372L85.5785 372C140.807 372 185.579 416.772 185.578 472L185.578 558Z" fill="#21C1F3"/>
</g>
<g opacity="0.05">
<path d="M741.289 372L655.289 372C600.061 372 555.289 327.229 555.289 272L555.289 186L641.289 186C696.518 186 741.289 230.772 741.289 286L741.289 372Z" fill="#FEC247"/>
<path d="M369.289 372L455.289 372C510.518 372 555.289 327.229 555.289 272L555.289 186L469.289 186C414.061 186 369.289 230.772 369.289 286L369.289 372Z" fill="#6B5ACC"/>
<path d="M555.289 186L469.289 186C414.061 186 369.289 141.229 369.289 86.0001L369.289 0.00010581L455.289 0.000113328C510.518 0.000118156 555.289 44.7717 555.289 100L555.289 186Z" fill="#21C1F3"/>
<path d="M555.289 186L641.289 186C696.518 186 741.289 141.229 741.289 86.0001L741.289 0.000138331L655.289 0.000130813C600.061 0.000125984 555.289 44.7717 555.289 100L555.289 186Z" fill="#EE4F3C"/>
<path d="M741.289 744L655.289 744C600.061 744 555.289 699.229 555.289 644L555.289 558L641.289 558C696.518 558 741.289 602.772 741.289 658L741.289 744Z" fill="#FEC247"/>
<path d="M369.289 744L455.289 744C510.518 744 555.289 699.229 555.289 644L555.289 558L469.289 558C414.061 558 369.289 602.772 369.289 658L369.289 744Z" fill="#6B5ACC"/>
<path d="M555.289 558L469.289 558C414.061 558 369.289 513.229 369.289 458L369.289 372L455.289 372C510.518 372 555.289 416.772 555.289 472L555.289 558Z" fill="#21C1F3"/>
<path d="M555.289 558L641.289 558C696.518 558 741.289 513.229 741.289 458L741.289 372L655.289 372C600.061 372 555.289 416.772 555.289 472L555.289 558Z" fill="#EE4F3C"/>
</g>
<g opacity="0.05">
<path d="M1111 372L1025 372C969.772 372 925 327.229 925 272L925 186L1011 186C1066.23 186 1111 230.772 1111 286L1111 372Z" fill="#FEC247"/>
<path d="M739 372L825 372C880.229 372 925 327.229 925 272L925 186L839 186C783.772 186 739 230.772 739 286L739 372Z" fill="#6B5ACC"/>
<path d="M925 186L839 186C783.772 186 739 141.229 739 86.0002L739 0.000166845L825 0.000174363C880.229 0.000179191 925 44.7717 925 100L925 186Z" fill="#21C1F3"/>
<path d="M925 186L1011 186C1066.23 186 1111 141.229 1111 86.0002L1111 0.000199366L1025 0.000191848C969.772 0.00018702 925 44.7717 925 100L925 186Z" fill="#EE4F3C"/>
<path d="M1111 744L1025 744C969.772 744 925 699.229 925 644L925 558L1011 558C1066.23 558 1111 602.772 1111 658L1111 744Z" fill="#FEC247"/>
<path d="M739 744L825 744C880.229 744 925 699.229 925 644L925 558L839 558C783.772 558 739 602.772 739 658L739 744Z" fill="#6B5ACC"/>
<path d="M925 558L839 558C783.772 558 739 513.229 739 458L739 372L825 372C880.229 372 925 416.772 925 472L925 558Z" fill="#21C1F3"/>
<path d="M925 558L1011 558C1066.23 558 1111 513.229 1111 458L1111 372L1025 372C969.772 372 925 416.772 925 472L925 558Z" fill="#EE4F3C"/>
</g>
</svg>
