<svg width="55" height="55" viewBox="0 0 55 55" fill="none" xmlns="http://www.w3.org/2000/svg">
<circle cx="27.5" cy="27.5" r="27.5" fill="white"/>
<path d="M27.4575 39.9537V29.0012C27.7763 29.03 28.0825 29.045 28.405 29.045C29.9338 29.045 31.3725 28.645 32.5925 27.9287V39.9512C32.5925 40.9787 32.3488 41.7375 31.8738 42.2437C31.4013 42.7475 30.7738 43 30.01 43C29.26 43 28.6638 42.7475 28.175 42.2275C27.7025 41.7237 27.4575 40.965 27.4575 39.9537ZM27.4863 13.7075C30.6675 12.5912 34.2888 12.6512 37.01 14.9412C37.5163 15.4025 38.0938 15.9825 38.3238 16.6662C38.5988 17.5312 37.3613 16.575 37.1913 16.4575C36.3038 15.8912 35.4188 15.4162 34.4263 15.09C29.075 13.4837 24.015 16.3862 20.8688 20.8937C19.5538 22.8862 18.6975 24.9837 17.9938 27.29C17.9188 27.5425 17.8575 27.8712 17.7188 28.0925C17.5788 28.3462 17.6588 27.41 17.6588 27.38C17.7638 26.4262 17.9638 25.505 18.21 24.5837C19.6625 19.6712 22.8713 15.5825 27.4875 13.7075H27.4863ZM33.6463 22.5312C33.6463 23.027 33.5486 23.5179 33.3589 23.9759C33.1692 24.4339 32.8911 24.85 32.5406 25.2006C32.19 25.5511 31.7739 25.8292 31.3159 26.0189C30.8579 26.2086 30.367 26.3062 29.8713 26.3062C29.3755 26.3062 28.8846 26.2086 28.4266 26.0189C27.9686 25.8292 27.5525 25.5511 27.2019 25.2006C26.8514 24.85 26.5733 24.4339 26.3836 23.9759C26.1939 23.5179 26.0963 23.027 26.0963 22.5312C26.0963 22.0355 26.1939 21.5446 26.3836 21.0866C26.5733 20.6286 26.8514 20.2124 27.2019 19.8619C27.5525 19.5114 27.9686 19.2333 28.4266 19.0436C28.8846 18.8539 29.3755 18.7562 29.8713 18.7562C30.367 18.7562 30.8579 18.8539 31.3159 19.0436C31.7739 19.2333 32.19 19.5114 32.5406 19.8619C32.8911 20.2124 33.1692 20.6286 33.3589 21.0866C33.5486 21.5446 33.6463 22.0355 33.6463 22.5312Z" fill="#095CF3"/>
</svg>
