<svg width="296" height="325" viewBox="0 0 296 325" fill="none" xmlns="http://www.w3.org/2000/svg">
<path d="M0.457397 0H62.9574C118.186 0 162.957 44.7715 162.957 100V162.5H100.457C45.2289 162.5 0.457397 117.728 0.457397 62.5V0Z" fill="#FEC247"/>
<path d="M325.457 0H262.957C207.729 0 162.957 44.7715 162.957 100V162.5H225.457C280.686 162.5 325.457 117.728 325.457 62.5V0Z" fill="#6B5ACC"/>
<path d="M162.957 162.5H225.457C280.686 162.5 325.457 207.272 325.457 262.5V325H262.957C207.729 325 162.957 280.228 162.957 225V162.5Z" fill="#21C1F3"/>
<path d="M162.957 162.5H100.457C45.2289 162.5 0.457397 207.272 0.457397 262.5V325H62.9574C118.186 325 162.957 280.228 162.957 225V162.5Z" fill="#EE4F3C"/>
</svg>
