<svg width="20" height="20" viewBox="0 0 20 20" fill="none" xmlns="http://www.w3.org/2000/svg">
<path d="M19.2836 7.27572L13.3328 6.41087L10.6726 1.0179C10.6 0.870248 10.4804 0.750717 10.3328 0.67806C9.96246 0.495248 9.51246 0.647592 9.3273 1.0179L6.66714 6.41087L0.716359 7.27572C0.552297 7.29915 0.402296 7.3765 0.287453 7.49369C0.148613 7.63639 0.0721056 7.82837 0.0747425 8.02746C0.0773793 8.22654 0.158944 8.41643 0.301515 8.5554L4.60699 12.7531L3.5898 18.6804C3.56595 18.8183 3.5812 18.9601 3.63384 19.0897C3.68648 19.2194 3.7744 19.3317 3.88762 19.4139C4.00084 19.4962 4.13483 19.545 4.27441 19.555C4.41398 19.5649 4.55356 19.5356 4.6773 19.4702L9.99996 16.6718L15.3226 19.4702C15.4679 19.5476 15.6367 19.5734 15.7984 19.5452C16.2062 19.4749 16.4804 19.0882 16.4101 18.6804L15.3929 12.7531L19.6984 8.5554C19.8156 8.44056 19.8929 8.29056 19.9164 8.1265C19.9797 7.71634 19.6937 7.33665 19.2836 7.27572Z" fill="#FA9B44"/>
</svg>
